<svg id="Layer_1" data-name="Layer 1" xmlns="http://www.w3.org/2000/svg" viewBox="0 0 512 512"><defs><style>.cls-1{fill:#e2e5e7;}.cls-2{fill:#b0b7bd;}.cls-3{fill:#cad1d8;}.cls-4{fill:#7f7f7f;}.cls-5{fill:#fff;}</style></defs><path class="cls-1" d="M128,0A32.09,32.09,0,0,0,96,32V480a32.09,32.09,0,0,0,32,32H448a32.09,32.09,0,0,0,32-32V128L352,0Z"/><path class="cls-2" d="M384,128h96L352,0V96A32.09,32.09,0,0,0,384,128Z"/><path class="cls-3" d="M480,224l-96-96h96Z"/><path class="cls-4" d="M416,416a16,16,0,0,1-16,16H48a16,16,0,0,1-16-16V256a16,16,0,0,1,16-16H400a16,16,0,0,1,16,16Z"/><path class="cls-3" d="M400,432H96v16H400a16,16,0,0,0,16-16V416A16,16,0,0,1,400,432Z"/><path class="cls-5" d="M93.33,378.79q-3.75,0-5.49-1.18a5.77,5.77,0,0,1-2.36-3.12,13.49,13.49,0,0,1-.63-4.17V290.15a15.17,15.17,0,0,1,.56-4.17,5.42,5.42,0,0,1,2.36-3.13c1.2-.78,3.1-1.18,5.69-1.18l26.13.14a47.71,47.71,0,0,1,18.62,3.55,44.29,44.29,0,0,1,14.72,9.93,45.14,45.14,0,0,1,9.73,15.21,52.25,52.25,0,0,1,3.47,19.25,55.06,55.06,0,0,1-3.47,19.87,46.29,46.29,0,0,1-9.73,15.56,43,43,0,0,1-14.86,10.07,49.31,49.31,0,0,1-18.9,3.54ZM101.8,362h17.79A29.65,29.65,0,0,0,135,358a27.53,27.53,0,0,0,10.42-11,34.88,34.88,0,0,0,3.75-16.54,35.24,35.24,0,0,0-3.75-16.6A27.42,27.42,0,0,0,135,302.72a29.93,29.93,0,0,0-15.56-4H101.8Z"/><path class="cls-5" d="M229.21,379.63A48,48,0,0,1,210,375.88a44.8,44.8,0,0,1-15.08-10.56A47.59,47.59,0,0,1,185,349.27a57.75,57.75,0,0,1-3.48-20.5,51,51,0,0,1,3.55-19.24,44.43,44.43,0,0,1,10.07-15.28,46.44,46.44,0,0,1,15.49-10.08,52.7,52.7,0,0,1,19.8-3.61,57.71,57.71,0,0,1,9,.76,53.55,53.55,0,0,1,9.24,2.37,31.52,31.52,0,0,1,7.85,4,28.35,28.35,0,0,1,4.52,3.47,6,6,0,0,1,2,4,5.32,5.32,0,0,1-.41,2.57,13.12,13.12,0,0,1-1.67,3,10.93,10.93,0,0,1-3.34,3.47,6.63,6.63,0,0,1-3.47,1.11,5.87,5.87,0,0,1-2.29-.69,36.74,36.74,0,0,1-3.82-2.22,28.82,28.82,0,0,0-4.66-2.23,42.22,42.22,0,0,0-6.39-1.87,34.42,34.42,0,0,0-7.29-.77,32.74,32.74,0,0,0-16.26,4,28.08,28.08,0,0,0-11,11.12,33.71,33.71,0,0,0-4,16.6,36.22,36.22,0,0,0,4,17.37,30.05,30.05,0,0,0,11.05,11.74,30.65,30.65,0,0,0,16.19,4.24,49.58,49.58,0,0,0,12.71-1.67,34.64,34.64,0,0,0,5.77-2.08V337H228.66a14,14,0,0,1-3.55-.42,3.93,3.93,0,0,1-2.5-2,10.76,10.76,0,0,1-.9-5.07q0-3.62,1-5.14a4.3,4.3,0,0,1,2.57-1.95,14.4,14.4,0,0,1,3.54-.41h28.35c2.41,0,4.17.41,5.28,1.25a6,6,0,0,1,2.22,3.19,15.73,15.73,0,0,1,.56,4.31V363c0,1.85-.91,3.77-2.71,5.76a24.6,24.6,0,0,1-7.57,5.35,43.87,43.87,0,0,1-7.3,2.92,60.72,60.72,0,0,1-8.75,1.94A66,66,0,0,1,229.21,379.63Z"/><path class="cls-5" d="M356.2,281.67a14.5,14.5,0,0,1,3.68.42,4.24,4.24,0,0,1,2.58,2,10.6,10.6,0,0,1,1,5.21,9.27,9.27,0,0,1-1,4.94,4.52,4.52,0,0,1-2.71,2,15.48,15.48,0,0,1-3.75.42H330.5V370.6a16.61,16.61,0,0,1-.49,4.23,4.91,4.91,0,0,1-2.22,3q-1.74,1.11-5.77,1.11c-2.59,0-4.47-.39-5.62-1.18a4.89,4.89,0,0,1-2.16-3.05,19.55,19.55,0,0,1-.41-4.24V296.68H288a15.6,15.6,0,0,1-3.68-.42,4.25,4.25,0,0,1-2.71-2,13.76,13.76,0,0,1,0-10.15,4.25,4.25,0,0,1,2.71-2,15.6,15.6,0,0,1,3.68-.42Z"/></svg>