<svg id="Layer_1" data-name="Layer 1" xmlns="http://www.w3.org/2000/svg" viewBox="0 0 512 512"><defs><style>.cls-1{fill:#e2e5e7;}.cls-2{fill:#b0b7bd;}.cls-3{fill:#cad1d8;}.cls-4{fill:#a454dd;}.cls-5{fill:#fff;}</style></defs><path class="cls-1" d="M128,0A32.09,32.09,0,0,0,96,32V480a32.09,32.09,0,0,0,32,32H448a32.09,32.09,0,0,0,32-32V128L352,0Z"/><path class="cls-2" d="M384,128h96L352,0V96A32.09,32.09,0,0,0,384,128Z"/><path class="cls-3" d="M480,224l-96-96h96Z"/><path class="cls-4" d="M416,416a16,16,0,0,1-16,16H48a16,16,0,0,1-16-16V256a16,16,0,0,1,16-16H400a16,16,0,0,1,16,16Z"/><path class="cls-3" d="M400,432H96v16H400a16,16,0,0,0,16-16V416A16,16,0,0,1,400,432Z"/><path class="cls-5" d="M110.9,378.79q-3.75,0-5.49-1.18a5.81,5.81,0,0,1-2.36-3.12,13.48,13.48,0,0,1-.62-4.17V290.15A15.17,15.17,0,0,1,103,286a5.46,5.46,0,0,1,2.36-3.13,10.77,10.77,0,0,1,5.7-1.18l26.12.14a47.67,47.67,0,0,1,18.62,3.55,44.23,44.23,0,0,1,14.73,9.93,45,45,0,0,1,9.72,15.21,52,52,0,0,1,3.48,19.25,54.85,54.85,0,0,1-3.48,19.87,46.11,46.11,0,0,1-9.72,15.56,43,43,0,0,1-14.87,10.07,49.24,49.24,0,0,1-18.9,3.54ZM119.38,362h17.78a29.59,29.59,0,0,0,15.42-4A27.53,27.53,0,0,0,163,347a34.77,34.77,0,0,0,3.76-16.54,35.13,35.13,0,0,0-3.76-16.6,27.42,27.42,0,0,0-10.42-11.12,29.88,29.88,0,0,0-15.56-4H119.38Z"/><path class="cls-5" d="M224.28,380.18a39.64,39.64,0,0,1-11.46-1.53,37.34,37.34,0,0,1-15.29-8.75,23.75,23.75,0,0,1-3.82-4.58,12.51,12.51,0,0,1-2.43-4.45,5.47,5.47,0,0,1,.42-3.82,12.57,12.57,0,0,1,3.4-4,7.66,7.66,0,0,1,4.66-2.29,6.78,6.78,0,0,1,4.16,1.32,17.83,17.83,0,0,1,4,3.89,19.58,19.58,0,0,0,7.51,6.32,20.15,20.15,0,0,0,8.33,1.88,27.8,27.8,0,0,0,9.45-1.46,13.37,13.37,0,0,0,6.25-4.38,12.07,12.07,0,0,0,2.23-7.5,8.84,8.84,0,0,0-2.23-6.19,18.15,18.15,0,0,0-6-4.16,75.17,75.17,0,0,0-8.41-3.2q-4.58-1.45-9.31-3.13a66.83,66.83,0,0,1-6.73-2.84,44.16,44.16,0,0,1-6.19-3.69,23.47,23.47,0,0,1-5.07-4.93,21.34,21.34,0,0,1-3.33-6.6,28.59,28.59,0,0,1-1.18-8.61,25.55,25.55,0,0,1,3.89-14,27.24,27.24,0,0,1,10.76-9.65,34.19,34.19,0,0,1,15.91-3.55,46,46,0,0,1,10.22,1,37,37,0,0,1,7.78,2.64,32.92,32.92,0,0,1,5.35,3.2,22.26,22.26,0,0,1,3.05,2.71c2.23,2.13,3.45,3.94,3.68,5.42s-.62,3.43-2.57,5.83-3.82,3.73-5.62,4-3.87-.48-6.19-2.15a22.43,22.43,0,0,0-4.37-3.68,17.22,17.22,0,0,0-5-2.15,25.84,25.84,0,0,0-6.46-.7,18.93,18.93,0,0,0-5.34.76,12.74,12.74,0,0,0-4.38,2.23,10.26,10.26,0,0,0-3.89,8.26,8.43,8.43,0,0,0,2,5.77,14.66,14.66,0,0,0,5.49,3.75,72.18,72.18,0,0,0,7.78,2.71c2.87.83,5.79,1.72,8.76,2.64a84.52,84.52,0,0,1,9,3.61,32.19,32.19,0,0,1,7.92,5.22,22.89,22.89,0,0,1,5.55,7.77,27.65,27.65,0,0,1,2.09,11.33,29,29,0,0,1-2.92,13.34,25.48,25.48,0,0,1-8,9.31,36.26,36.26,0,0,1-11.11,5.35A44.62,44.62,0,0,1,224.28,380.18Z"/><path class="cls-5" d="M338.63,281.67a14.55,14.55,0,0,1,3.68.42,4.22,4.22,0,0,1,2.57,2,10.48,10.48,0,0,1,1,5.21,9.18,9.18,0,0,1-1,4.94,4.49,4.49,0,0,1-2.71,2,15.36,15.36,0,0,1-3.75.42H312.92V370.6a17.09,17.09,0,0,1-.48,4.23,5,5,0,0,1-2.23,3c-1.15.74-3.08,1.11-5.76,1.11s-4.47-.39-5.63-1.18a4.87,4.87,0,0,1-2.15-3.05,19.52,19.52,0,0,1-.42-4.24V296.68H270.41a15.54,15.54,0,0,1-3.68-.42,4.23,4.23,0,0,1-2.71-2,13.63,13.63,0,0,1,0-10.15,4.23,4.23,0,0,1,2.71-2,15.54,15.54,0,0,1,3.68-.42Z"/></svg>