<svg id="Layer_1" data-name="Layer 1" xmlns="http://www.w3.org/2000/svg" viewBox="0 0 512 512"><defs><style>.cls-1{fill:#e2e5e7;}.cls-2{fill:#b0b7bd;}.cls-3{fill:#cad1d8;}.cls-4{fill:#e0c553;}.cls-5{fill:#fff;}</style></defs><path class="cls-1" d="M128,0A32.09,32.09,0,0,0,96,32V480a32.09,32.09,0,0,0,32,32H448a32.09,32.09,0,0,0,32-32V128L352,0Z"/><path class="cls-2" d="M384,128h96L352,0V96A32.09,32.09,0,0,0,384,128Z"/><path class="cls-3" d="M480,224l-96-96h96Z"/><path class="cls-4" d="M416,416a16,16,0,0,1-16,16H48a16,16,0,0,1-16-16V256a16,16,0,0,1,16-16H400a16,16,0,0,1,16,16Z"/><path class="cls-3" d="M400,432H96v16H400a16,16,0,0,0,16-16V416A16,16,0,0,1,400,432Z"/><path class="cls-5" d="M93.74,378.93q-4,0-5.76-1.18a5.22,5.22,0,0,1-2.23-3.13,17.91,17.91,0,0,1-.48-4.3v-80c0-3.25.64-5.47,1.94-6.67s3.61-1.81,7-1.81h54.05a17.54,17.54,0,0,1,4.31.49,4.88,4.88,0,0,1,3,2.29q1.11,1.8,1.11,5.84c0,2.59-.39,4.47-1.18,5.62a5.26,5.26,0,0,1-3.12,2.23,18.05,18.05,0,0,1-4.31.48H102.22V322h31.54a15.54,15.54,0,0,1,4.1.48,4.63,4.63,0,0,1,2.71,2c.64,1,1,2.78,1,5.28a9.82,9.82,0,0,1-1,4.93,4.22,4.22,0,0,1-2.78,2,19.29,19.29,0,0,1-4.31.42H102.22V362h46a17.54,17.54,0,0,1,4.31.49,4.88,4.88,0,0,1,3,2.29,11.24,11.24,0,0,1,1.11,5.7q0,3.89-1.18,5.69a5.17,5.17,0,0,1-3.12,2.3,18.05,18.05,0,0,1-4.31.48Z"/><path class="cls-5" d="M180.86,378.79a10.49,10.49,0,0,1-5.49-1.11,5.21,5.21,0,0,1-2.29-3.06,15.6,15.6,0,0,1-.56-4.3V290.15a13.68,13.68,0,0,1,.56-4,5.83,5.83,0,0,1,2.36-3.06q1.8-1.24,5.7-1.25a16.92,16.92,0,0,1,4.37.42,7.06,7.06,0,0,1,2.3,1,10.7,10.7,0,0,1,1.66,1.6l33.77,47.24h-3.06l33.9-47.52a7.83,7.83,0,0,1,1.95-1.67,8,8,0,0,1,2.5-.83,22.91,22.91,0,0,1,4-.28q3.88,0,5.69,1.25a5.45,5.45,0,0,1,2.3,3.2,17.4,17.4,0,0,1,.48,4.17V370.6a16.64,16.64,0,0,1-.48,4,4.89,4.89,0,0,1-2.3,3.06c-1.2.74-3.15,1.11-5.83,1.11q-3.75,0-5.49-1.18a5.46,5.46,0,0,1-2.29-3.12,15.17,15.17,0,0,1-.56-4.17V310.71l-25.15,36.54a9.18,9.18,0,0,1-1.25,1.6,6.66,6.66,0,0,1-2.22,1.53,9.25,9.25,0,0,1-3.75.63,8.7,8.7,0,0,1-3.68-.63,6.92,6.92,0,0,1-2.16-1.53c-.55-.6-1.06-1.18-1.53-1.73l-25-36.27V370.6a16.64,16.64,0,0,1-.48,4,4.91,4.91,0,0,1-2.29,3.06A11.27,11.27,0,0,1,180.86,378.79Z"/><path class="cls-5" d="M296.18,378.79c-2.5,0-4.33-.41-5.49-1.25a5.48,5.48,0,0,1-2.22-3.33,19.88,19.88,0,0,1-.49-4.59V290.7a18.28,18.28,0,0,1,.49-4.37,5.73,5.73,0,0,1,2.29-3.34c1.2-.88,3.06-1.32,5.56-1.32H333a26.54,26.54,0,0,1,14.17,3.75A27.56,27.56,0,0,1,360.37,309a27.84,27.84,0,0,1-.76,6.53,22.4,22.4,0,0,1-2.36,6,21.93,21.93,0,0,1-4,5,24.69,24.69,0,0,1,5.55,6.18,29.21,29.21,0,0,1,3.55,7.85,32.28,32.28,0,0,1,1.18,8.76,32,32,0,0,1-2.36,11.6,28.85,28.85,0,0,1-26.82,17.85Zm8.61-16.39H333a16.22,16.22,0,0,0,7.09-1.53,11.22,11.22,0,0,0,5-4.72,16.91,16.91,0,0,0,1.8-8.34,16.54,16.54,0,0,0-1-6.46A8.73,8.73,0,0,0,343,337.6a11.58,11.58,0,0,0-3.89-1.88,21.71,21.71,0,0,0-4.23-.69c-1.44-.09-2.76-.14-4-.14h-6.26c-2.41,0-4.16-.56-5.28-1.67s-1.66-3-1.66-5.7.6-4.42,1.8-5.48,3.06-1.6,5.56-1.6h6.12c1.2,0,2.52-.05,3.95-.14a11.33,11.33,0,0,0,4.1-1,7.28,7.28,0,0,0,3.2-3,11.76,11.76,0,0,0,1.25-6q0-6.24-3.27-9.1c-2.17-1.89-5.86-2.84-11-2.84h-24.6Z"/></svg>