<svg id="Layer_1" data-name="Layer 1" xmlns="http://www.w3.org/2000/svg" viewBox="0 0 512 512"><defs><style>.cls-1{fill:#e2e5e7;}.cls-2{fill:#b0b7bd;}.cls-3{fill:#cad1d8;}.cls-4{fill:#c1e053;}.cls-5{fill:#fff;}</style></defs><path class="cls-1" d="M128,0A32.09,32.09,0,0,0,96,32V480a32.09,32.09,0,0,0,32,32H448a32.09,32.09,0,0,0,32-32V128L352,0Z"/><path class="cls-2" d="M384,128h96L352,0V96A32.09,32.09,0,0,0,384,128Z"/><path class="cls-3" d="M480,224l-96-96h96Z"/><path class="cls-4" d="M416,416a16,16,0,0,1-16,16H48a16,16,0,0,1-16-16V256a16,16,0,0,1,16-16H400a16,16,0,0,1,16,16Z"/><path class="cls-3" d="M400,432H96v16H400a16,16,0,0,0,16-16V416A16,16,0,0,1,400,432Z"/><path class="cls-5" d="M104.3,378.93q-4,0-5.76-1.18a5.18,5.18,0,0,1-2.23-3.13,17.91,17.91,0,0,1-.48-4.3v-80c0-3.25.64-5.47,1.94-6.67s3.61-1.81,7-1.81h54.05a17.4,17.4,0,0,1,4.3.49,4.88,4.88,0,0,1,3.06,2.29q1.11,1.8,1.11,5.84c0,2.59-.39,4.47-1.18,5.62a5.26,5.26,0,0,1-3.12,2.23,18.05,18.05,0,0,1-4.31.48H112.78V322h31.54a15.54,15.54,0,0,1,4.1.48,4.58,4.58,0,0,1,2.7,2q1,1.53,1,5.28a9.7,9.7,0,0,1-1,4.93,4.18,4.18,0,0,1-2.77,2,19.29,19.29,0,0,1-4.31.42H112.78V362h46a17.4,17.4,0,0,1,4.3.49,4.88,4.88,0,0,1,3.06,2.29,11.24,11.24,0,0,1,1.11,5.7q0,3.89-1.18,5.69a5.17,5.17,0,0,1-3.12,2.3,18.05,18.05,0,0,1-4.31.48Z"/><path class="cls-5" d="M261.86,377.27a15.88,15.88,0,0,1-4.37,2.77,4.15,4.15,0,0,1-3.62-.27,15.54,15.54,0,0,1-3.82-3.34l-65.58-80.72c-2-2.32-3-4.36-3-6.12s1.28-3.7,3.69-5.83a13.39,13.39,0,0,1,4.37-2.85,4.6,4.6,0,0,1,3.68.28,11.67,11.67,0,0,1,3.76,3.4l65.58,81q3.19,3.48,3.19,6.05C265.75,373.35,264.46,375.23,261.86,377.27Zm-76.69,0q-3.61-3.06-3.69-5.63c0-1.71,1-3.73,3-6.05l65.58-81a13.39,13.39,0,0,1,3.82-3.4,4.57,4.57,0,0,1,3.68-.28,13.19,13.19,0,0,1,4.45,2.85q3.75,3.19,3.75,5.83t-3.05,6.12l-65.58,80.72a15.74,15.74,0,0,1-3.83,3.34,4.27,4.27,0,0,1-3.68.27A15.39,15.39,0,0,1,185.17,377.27Z"/><path class="cls-5" d="M291.32,378.79q-4,0-5.77-1.11a4.93,4.93,0,0,1-2.22-3.12,17.78,17.78,0,0,1-.49-4.24v-80a15.17,15.17,0,0,1,.56-4.17,5.42,5.42,0,0,1,2.36-3.13c1.2-.78,3.1-1.18,5.7-1.18h29.31a35.06,35.06,0,0,1,12,2.09,31.75,31.75,0,0,1,10.49,6.32,30,30,0,0,1,7.44,10.35,38.4,38.4,0,0,1,0,28.34,28.67,28.67,0,0,1-7.44,10.21,32.74,32.74,0,0,1-10.56,6.19,35.66,35.66,0,0,1-12.09,2.08H299.79v23.07a17.26,17.26,0,0,1-.48,4.16,5,5,0,0,1-2.23,3.06Q295.34,378.79,291.32,378.79Zm8.47-48.35h21a18.15,18.15,0,0,0,7.92-1.73,13.53,13.53,0,0,0,5.77-5.28,16.82,16.82,0,0,0,2.15-8.83,17.26,17.26,0,0,0-1.94-8.4,13.49,13.49,0,0,0-5.56-5.49,17.58,17.58,0,0,0-8.48-1.95H299.79Z"/></svg>