<svg id="Layer_1" data-name="Layer 1" xmlns="http://www.w3.org/2000/svg" viewBox="0 0 512 512"><defs><style>.cls-1{fill:#e2e5e7;}.cls-2{fill:#b0b7bd;}.cls-3{fill:#cad1d8;}.cls-4{fill:#53dce0;}.cls-5{fill:#fff;}</style></defs><path class="cls-1" d="M128,0A32.09,32.09,0,0,0,96,32V480a32.09,32.09,0,0,0,32,32H448a32.09,32.09,0,0,0,32-32V128L352,0Z"/><path class="cls-2" d="M384,128h96L352,0V96A32.09,32.09,0,0,0,384,128Z"/><path class="cls-3" d="M480,224l-96-96h96Z"/><path class="cls-4" d="M416,416a16,16,0,0,1-16,16H48a16,16,0,0,1-16-16V256a16,16,0,0,1,16-16H400a16,16,0,0,1,16,16Z"/><path class="cls-3" d="M400,432H96v16H400a16,16,0,0,0,16-16V416A16,16,0,0,1,400,432Z"/><path class="cls-5" d="M104.65,378.79a11.22,11.22,0,0,1-5.7-1.11,4.66,4.66,0,0,1-2.22-3.12,20.81,20.81,0,0,1-.42-4.24v-80a16.63,16.63,0,0,1,.49-4.24A5.19,5.19,0,0,1,99,283c1.16-.78,3.08-1.18,5.77-1.18s4.6.4,5.76,1.18a4.93,4.93,0,0,1,2.16,3.06,20.26,20.26,0,0,1,.41,4.38v80a17.26,17.26,0,0,1-.48,4.16,5,5,0,0,1-2.22,3.06C109.26,378.42,107.33,378.79,104.65,378.79Zm4-41.68V322h50.57v15.14Zm56.69,41.68c-2.6,0-4.47-.37-5.63-1.11a4.93,4.93,0,0,1-2.22-3.12,17.78,17.78,0,0,1-.49-4.24v-80a16.63,16.63,0,0,1,.49-4.24,5.11,5.11,0,0,1,2.29-3.06c1.2-.78,3.1-1.18,5.7-1.18s4.6.4,5.76,1.18a5.25,5.25,0,0,1,2.23,3.06,17.78,17.78,0,0,1,.48,4.38v80a17.26,17.26,0,0,1-.48,4.16,4.89,4.89,0,0,1-2.3,3.06C170,378.42,168.05,378.79,165.37,378.79Z"/><path class="cls-5" d="M233,379.77a39.24,39.24,0,0,1-17.23-3.62,36.94,36.94,0,0,1-12.71-9.93,43.72,43.72,0,0,1-7.85-14.45,55.69,55.69,0,0,1-2.64-17.3V290.29a17.48,17.48,0,0,1,.49-4.31,5.11,5.11,0,0,1,2.29-3.13c1.2-.78,3.15-1.18,5.83-1.18s4.61.4,5.77,1.18A5.19,5.19,0,0,1,209.2,286a18.14,18.14,0,0,1,.49,4.45v44a37.62,37.62,0,0,0,2.57,14.1A23.44,23.44,0,0,0,220,358.93q5.21,3.88,13.41,3.89a21.47,21.47,0,0,0,20.77-13.34,37,37,0,0,0,2.85-15.15V289.45a12.5,12.5,0,0,1,.55-3.82,5.2,5.2,0,0,1,2.37-2.85,11.2,11.2,0,0,1,5.69-1.11q3.9,0,5.7,1.25a5.15,5.15,0,0,1,2.22,3.13,20.21,20.21,0,0,1,.42,4.38v44.32a55.69,55.69,0,0,1-2.64,17.3,41.5,41.5,0,0,1-7.92,14.31,38.2,38.2,0,0,1-12.92,9.79A40.5,40.5,0,0,1,233,379.77Z"/><path class="cls-5" d="M318.2,380.18a39.64,39.64,0,0,1-11.46-1.53,37,37,0,0,1-8.89-3.89,36.52,36.52,0,0,1-6.39-4.86,23.39,23.39,0,0,1-3.82-4.58,12.51,12.51,0,0,1-2.43-4.45,5.46,5.46,0,0,1,.41-3.82,12.62,12.62,0,0,1,3.41-4,7.62,7.62,0,0,1,4.65-2.29,6.79,6.79,0,0,1,4.17,1.32,18.27,18.27,0,0,1,4,3.89,19.48,19.48,0,0,0,7.5,6.32,20.2,20.2,0,0,0,8.34,1.88,27.84,27.84,0,0,0,9.45-1.46,13.42,13.42,0,0,0,6.25-4.38,12.06,12.06,0,0,0,2.22-7.5,8.83,8.83,0,0,0-2.22-6.19,18.2,18.2,0,0,0-6.05-4.16,74.24,74.24,0,0,0-8.4-3.2q-4.59-1.45-9.31-3.13a67,67,0,0,1-6.74-2.84,43.49,43.49,0,0,1-6.18-3.69,23,23,0,0,1-5.07-4.93,21.58,21.58,0,0,1-3.34-6.6,28.59,28.59,0,0,1-1.18-8.61,25.64,25.64,0,0,1,3.89-14,27.21,27.21,0,0,1,10.77-9.65,34.13,34.13,0,0,1,15.91-3.55,45.82,45.82,0,0,1,10.21,1,37,37,0,0,1,7.78,2.64,32.49,32.49,0,0,1,5.35,3.2,22.45,22.45,0,0,1,3.06,2.71q3.33,3.19,3.68,5.42c.23,1.48-.63,3.43-2.57,5.83s-3.82,3.73-5.63,4-3.87-.48-6.18-2.15a22.77,22.77,0,0,0-4.38-3.68,17.16,17.16,0,0,0-5-2.15,26,26,0,0,0-6.46-.7,19,19,0,0,0-5.35.76,12.93,12.93,0,0,0-4.38,2.23,10.52,10.52,0,0,0-2.84,3.54,10.37,10.37,0,0,0-1.05,4.72,8.39,8.39,0,0,0,2,5.77,14.66,14.66,0,0,0,5.49,3.75,70.68,70.68,0,0,0,7.78,2.71c2.87.83,5.78,1.72,8.75,2.64a82.88,82.88,0,0,1,9,3.61,32.19,32.19,0,0,1,7.92,5.22,22.78,22.78,0,0,1,5.56,7.77,27.66,27.66,0,0,1,2.08,11.33,29,29,0,0,1-2.91,13.34,25.58,25.58,0,0,1-8,9.31,36.42,36.42,0,0,1-11.12,5.35A44.62,44.62,0,0,1,318.2,380.18Z"/></svg>