<svg id="Layer_1" data-name="Layer 1" xmlns="http://www.w3.org/2000/svg" viewBox="0 0 512 512"><defs><style>.cls-1{fill:#e2e5e7;}.cls-2{fill:#b0b7bd;}.cls-3{fill:#cad1d8;}.cls-4{fill:#54dd65;}.cls-5{fill:#fff;}</style></defs><path class="cls-1" d="M128,0A32.09,32.09,0,0,0,96,32V480a32.09,32.09,0,0,0,32,32H448a32.09,32.09,0,0,0,32-32V128L352,0Z"/><path class="cls-2" d="M384,128h96L352,0V96A32.09,32.09,0,0,0,384,128Z"/><path class="cls-3" d="M480,224l-96-96h96Z"/><path class="cls-4" d="M416,416a16,16,0,0,1-16,16H48a16,16,0,0,1-16-16V256a16,16,0,0,1,16-16H400a16,16,0,0,1,16,16Z"/><path class="cls-3" d="M400,432H96v16H400a16,16,0,0,0,16-16V416A16,16,0,0,1,400,432Z"/><path class="cls-5" d="M129.45,379.63a31.44,31.44,0,0,1-8.68-1.18,35.78,35.78,0,0,1-7.37-3,41,41,0,0,1-5.49-3.54,38.74,38.74,0,0,1-3.33-2.85,34.13,34.13,0,0,1-2.85-3.2,5.13,5.13,0,0,1-1.18-3.19,6,6,0,0,1,1-3.13,22,22,0,0,1,2.36-3.13,13.33,13.33,0,0,1,3.27-2.71,6.48,6.48,0,0,1,3-.76,5.31,5.31,0,0,1,3.68,1.46c1.06,1,2.34,2.15,3.82,3.54.74.56,1.71,1.23,2.92,2a18.78,18.78,0,0,0,4.17,2,16.09,16.09,0,0,0,5.41.84,15.55,15.55,0,0,0,6.6-1.32,12.26,12.26,0,0,0,4.73-3.83,17.9,17.9,0,0,0,2.85-5.9,27.32,27.32,0,0,0,1-7.43V291.4a21.38,21.38,0,0,1,.49-4.79,5.64,5.64,0,0,1,2.36-3.48q1.88-1.32,5.9-1.32a10,10,0,0,1,5.49,1.18,5.19,5.19,0,0,1,2.22,3.13,17.48,17.48,0,0,1,.49,4.31v54.88A39.25,39.25,0,0,1,160,358.93a32.24,32.24,0,0,1-6.6,10.9A29.79,29.79,0,0,1,143,377.06,34.38,34.38,0,0,1,129.45,379.63Z"/><path class="cls-5" d="M191.14,378.93q-4,0-5.77-1.18a5.16,5.16,0,0,1-2.22-3.13,17.4,17.4,0,0,1-.49-4.3v-80q0-4.87,2-6.67c1.3-1.21,3.61-1.81,6.95-1.81h54.05a17.46,17.46,0,0,1,4.3.49,4.88,4.88,0,0,1,3.06,2.29q1.11,1.8,1.11,5.84c0,2.59-.39,4.47-1.18,5.62a5.25,5.25,0,0,1-3.13,2.23,17.91,17.91,0,0,1-4.3.48H199.62V322h31.54a15.46,15.46,0,0,1,4.09.48,4.6,4.6,0,0,1,2.71,2q1,1.53,1,5.28a9.7,9.7,0,0,1-1,4.93,4.2,4.2,0,0,1-2.78,2,19.19,19.19,0,0,1-4.3.42H199.62V362h46a17.46,17.46,0,0,1,4.3.49,4.88,4.88,0,0,1,3.06,2.29,11.24,11.24,0,0,1,1.11,5.7q0,3.89-1.18,5.69a5.16,5.16,0,0,1-3.13,2.3,17.91,17.91,0,0,1-4.3.48Z"/><path class="cls-5" d="M279.51,378.93q-4,0-5.77-1.18a5.16,5.16,0,0,1-2.22-3.13,17.4,17.4,0,0,1-.49-4.3v-80q0-4.87,2-6.67c1.29-1.21,3.61-1.81,6.94-1.81H334a16.63,16.63,0,0,1,4.24.49,4.87,4.87,0,0,1,3,2.29q1.11,1.8,1.11,5.84c0,2.59-.4,4.47-1.18,5.62a5.25,5.25,0,0,1-3.13,2.23,18,18,0,0,1-4.3.48H288V322h31.4a16.26,16.26,0,0,1,4.17.48,4.28,4.28,0,0,1,2.71,2.09,11.17,11.17,0,0,1,.9,5.21,9.68,9.68,0,0,1-1,5,4.25,4.25,0,0,1-2.71,1.94,18.33,18.33,0,0,1-4.24.42H288v33.35a17.17,17.17,0,0,1-.48,4.24,5.12,5.12,0,0,1-2.3,3.05Q283.4,378.94,279.51,378.93Z"/></svg>