<svg id="Layer_1" data-name="Layer 1" xmlns="http://www.w3.org/2000/svg" viewBox="0 0 512 512"><defs><style>.cls-1{fill:#e2e5e7;}.cls-2{fill:#b0b7bd;}.cls-3{fill:#cad1d8;}.cls-4{fill:#dd54af;}.cls-5{fill:#fff;}</style></defs><path class="cls-1" d="M128,0A32.09,32.09,0,0,0,96,32V480a32.09,32.09,0,0,0,32,32H448a32.09,32.09,0,0,0,32-32V128L352,0Z"/><path class="cls-2" d="M384,128h96L352,0V96A32.09,32.09,0,0,0,384,128Z"/><path class="cls-3" d="M480,224l-96-96h96Z"/><path class="cls-4" d="M416,416a16,16,0,0,1-16,16H48a16,16,0,0,1-16-16V256a16,16,0,0,1,16-16H400a16,16,0,0,1,16,16Z"/><path class="cls-3" d="M400,432H96v16H400a16,16,0,0,0,16-16V416A16,16,0,0,1,400,432Z"/><path class="cls-5" d="M110.9,378.79q-4,0-5.76-1.11a5,5,0,0,1-2.23-3.12,18.31,18.31,0,0,1-.48-4.24v-80a15.17,15.17,0,0,1,.55-4.17,5.46,5.46,0,0,1,2.36-3.13,10.77,10.77,0,0,1,5.7-1.18h29.32a35.1,35.1,0,0,1,12,2.09,31.75,31.75,0,0,1,10.49,6.32,30.14,30.14,0,0,1,7.43,10.35,38.4,38.4,0,0,1,0,28.34,28.77,28.77,0,0,1-7.43,10.21,32.74,32.74,0,0,1-10.56,6.19,35.66,35.66,0,0,1-12.09,2.08H119.38v23.07a17.25,17.25,0,0,1-.49,4.16,4.91,4.91,0,0,1-2.22,3.06Q114.93,378.79,110.9,378.79Zm8.48-48.35h21a18.15,18.15,0,0,0,7.92-1.73,13.45,13.45,0,0,0,5.76-5.28,16.72,16.72,0,0,0,2.16-8.83,17.15,17.15,0,0,0-1.95-8.4,13.49,13.49,0,0,0-5.56-5.49,17.54,17.54,0,0,0-8.47-1.95H119.38Z"/><path class="cls-5" d="M234.84,379.63a47.69,47.69,0,0,1-13.76-2.09,52.86,52.86,0,0,1-13.27-6.11,48.16,48.16,0,0,1-11.32-10.14,47.36,47.36,0,0,1-7.85-14,52.22,52.22,0,0,1-2.85-17.78,49.63,49.63,0,0,1,2.85-17.3,44.85,44.85,0,0,1,7.78-13.55,46,46,0,0,1,11.33-9.72,54.94,54.94,0,0,1,27.37-8.06,40.76,40.76,0,0,1,12.09,1.6,54.25,54.25,0,0,1,8.4,3.26,41.69,41.69,0,0,1,4.24,2.36,39.62,39.62,0,0,1,4.31,3.13,5.92,5.92,0,0,1,2.22,4.38,7.28,7.28,0,0,1-.56,2.85,14.36,14.36,0,0,1-1.53,2.7,13.46,13.46,0,0,1-3.26,3.62,5.67,5.67,0,0,1-3.27,1.11,5.23,5.23,0,0,1-2.84-.83l-3.27-2.09a30,30,0,0,0-3.12-1.81A34.54,34.54,0,0,0,242.9,299a30.64,30.64,0,0,0-8.62-1,32.5,32.5,0,0,0-11.53,2.15,31.86,31.86,0,0,0-10.21,6.25,29.65,29.65,0,0,0-7.16,10.08,33.73,33.73,0,0,0-2.64,13.75A34.25,34.25,0,0,0,205.38,344a29.32,29.32,0,0,0,7.16,10.14,30.49,30.49,0,0,0,10.21,6.18,33.33,33.33,0,0,0,11.53,2.09,33,33,0,0,0,8.2-.9,25.38,25.38,0,0,0,5.84-2.23l3.61-2c1-.65,2-1.25,2.92-1.81a5.59,5.59,0,0,1,2.91-.83,5.67,5.67,0,0,1,3.27,1.11,13.4,13.4,0,0,1,3.26,3.61,17.56,17.56,0,0,1,1.53,2.92,6.28,6.28,0,0,1,.42,2.92,5.85,5.85,0,0,1-2.15,4.24,26.66,26.66,0,0,1-4.24,3q-1.11.71-4.31,2.5a38.22,38.22,0,0,1-8.33,3.27A45.92,45.92,0,0,1,234.84,379.63Z"/><path class="cls-5" d="M312,380.18a39.64,39.64,0,0,1-11.46-1.53,37,37,0,0,1-8.89-3.89,36.52,36.52,0,0,1-6.39-4.86,23.85,23.85,0,0,1-3.83-4.58,12.84,12.84,0,0,1-2.43-4.45,5.52,5.52,0,0,1,.42-3.82,12.62,12.62,0,0,1,3.41-4,7.62,7.62,0,0,1,4.65-2.29,6.8,6.8,0,0,1,4.17,1.32,18.27,18.27,0,0,1,4,3.89,19.48,19.48,0,0,0,7.5,6.32,20.2,20.2,0,0,0,8.34,1.88,27.84,27.84,0,0,0,9.45-1.46,13.42,13.42,0,0,0,6.25-4.38,12.06,12.06,0,0,0,2.22-7.5,8.83,8.83,0,0,0-2.22-6.19,18.2,18.2,0,0,0-6.05-4.16,74.24,74.24,0,0,0-8.4-3.2q-4.59-1.45-9.31-3.13a67,67,0,0,1-6.74-2.84,43.49,43.49,0,0,1-6.18-3.69,23,23,0,0,1-5.07-4.93,21.58,21.58,0,0,1-3.34-6.6,28.59,28.59,0,0,1-1.18-8.61,25.55,25.55,0,0,1,3.89-14,27.21,27.21,0,0,1,10.77-9.65,34.16,34.16,0,0,1,15.91-3.55,45.89,45.89,0,0,1,10.21,1,37,37,0,0,1,7.78,2.64,32.49,32.49,0,0,1,5.35,3.2,22.45,22.45,0,0,1,3.06,2.71q3.33,3.19,3.68,5.42c.23,1.48-.63,3.43-2.57,5.83s-3.82,3.73-5.63,4-3.87-.48-6.18-2.15a22.77,22.77,0,0,0-4.38-3.68,17.16,17.16,0,0,0-5-2.15,26,26,0,0,0-6.46-.7,19,19,0,0,0-5.35.76,12.74,12.74,0,0,0-4.38,2.23,10.67,10.67,0,0,0-2.85,3.54,10.5,10.5,0,0,0-1,4.72,8.39,8.39,0,0,0,2,5.77,14.7,14.7,0,0,0,5.48,3.75,71.63,71.63,0,0,0,7.79,2.71c2.86.83,5.78,1.72,8.75,2.64a83.69,83.69,0,0,1,9,3.61,32.19,32.19,0,0,1,7.92,5.22,22.78,22.78,0,0,1,5.56,7.77,27.66,27.66,0,0,1,2.08,11.33,28.85,28.85,0,0,1-2.92,13.34,25.46,25.46,0,0,1-8,9.31,36.42,36.42,0,0,1-11.12,5.35A44.62,44.62,0,0,1,312,380.18Z"/></svg>