<svg id="Layer_1" data-name="Layer 1" xmlns="http://www.w3.org/2000/svg" viewBox="0 0 512 512"><defs><style>.cls-1{fill:#e2e5e7;}.cls-2{fill:#b0b7bd;}.cls-3{fill:#cad1d8;}.cls-4{fill:#d83a3a;}.cls-5{fill:#fff;}</style></defs><path class="cls-1" d="M128,0A32.09,32.09,0,0,0,96,32V480a32.09,32.09,0,0,0,32,32H448a32.09,32.09,0,0,0,32-32V128L352,0Z"/><path class="cls-2" d="M384,128h96L352,0V96A32.09,32.09,0,0,0,384,128Z"/><path class="cls-3" d="M480,224l-96-96h96Z"/><path class="cls-4" d="M416,416a16,16,0,0,1-16,16H48a16,16,0,0,1-16-16V256a16,16,0,0,1,16-16H400a16,16,0,0,1,16,16Z"/><path class="cls-3" d="M400,432H96v16H400a16,16,0,0,0,16-16V416A16,16,0,0,1,400,432Z"/><path class="cls-5" d="M106.32,378.79q-4,0-5.77-1.11a4.93,4.93,0,0,1-2.22-3.12,17.78,17.78,0,0,1-.49-4.24v-80a15.17,15.17,0,0,1,.56-4.17,5.42,5.42,0,0,1,2.36-3.13c1.2-.78,3.1-1.18,5.7-1.18h29.31a35.06,35.06,0,0,1,12,2.09,31.75,31.75,0,0,1,10.49,6.32,29.88,29.88,0,0,1,7.43,10.35,38.4,38.4,0,0,1,0,28.34,28.53,28.53,0,0,1-7.43,10.21,32.74,32.74,0,0,1-10.56,6.19,35.66,35.66,0,0,1-12.09,2.08H114.79v23.07a16.77,16.77,0,0,1-.49,4.16,4.91,4.91,0,0,1-2.22,3.06Q110.34,378.79,106.32,378.79Zm8.47-48.35h21a18.15,18.15,0,0,0,7.92-1.73,13.53,13.53,0,0,0,5.77-5.28,16.82,16.82,0,0,0,2.15-8.83,17.26,17.26,0,0,0-1.94-8.4,13.49,13.49,0,0,0-5.56-5.49,17.61,17.61,0,0,0-8.48-1.95H114.79Z"/><path class="cls-5" d="M193.16,378.93q-4,0-5.77-1.18a5.16,5.16,0,0,1-2.22-3.13,17.4,17.4,0,0,1-.49-4.3v-80q0-4.87,1.94-6.67t6.95-1.81h54.05a17.48,17.48,0,0,1,4.31.49,4.88,4.88,0,0,1,3,2.29q1.13,1.8,1.12,5.84c0,2.59-.4,4.47-1.18,5.62a5.25,5.25,0,0,1-3.13,2.23,18,18,0,0,1-4.31.48H201.63V322h31.54a15.49,15.49,0,0,1,4.1.48,4.6,4.6,0,0,1,2.71,2q1,1.53,1,5.28a9.71,9.71,0,0,1-1,4.93,4.22,4.22,0,0,1-2.78,2,19.23,19.23,0,0,1-4.31.42H201.63V362h46a17.48,17.48,0,0,1,4.31.49,4.88,4.88,0,0,1,3,2.29c.75,1.2,1.12,3.11,1.12,5.7s-.4,4.49-1.18,5.69a5.16,5.16,0,0,1-3.13,2.3,18,18,0,0,1-4.31.48Z"/><path class="cls-5" d="M302,380.18a39.76,39.76,0,0,1-11.47-1.53,37.21,37.21,0,0,1-8.89-3.89,36.52,36.52,0,0,1-6.39-4.86,23.75,23.75,0,0,1-3.82-4.58,12.51,12.51,0,0,1-2.43-4.45,5.41,5.41,0,0,1,.42-3.82,12.57,12.57,0,0,1,3.4-4,7.67,7.67,0,0,1,4.65-2.29,6.79,6.79,0,0,1,4.17,1.32,18.27,18.27,0,0,1,4,3.89,19.58,19.58,0,0,0,7.51,6.32,20.12,20.12,0,0,0,8.33,1.88,27.84,27.84,0,0,0,9.45-1.46,13.37,13.37,0,0,0,6.25-4.38,12.07,12.07,0,0,0,2.23-7.5,8.84,8.84,0,0,0-2.23-6.19,18.15,18.15,0,0,0-6-4.16,75.17,75.17,0,0,0-8.41-3.2q-4.58-1.45-9.31-3.13a66.83,66.83,0,0,1-6.73-2.84,44.16,44.16,0,0,1-6.19-3.69,23.47,23.47,0,0,1-5.07-4.93,21.34,21.34,0,0,1-3.33-6.6,28.58,28.58,0,0,1-1.19-8.61,25.64,25.64,0,0,1,3.89-14,27.34,27.34,0,0,1,10.77-9.65,34.19,34.19,0,0,1,15.91-3.55,46,46,0,0,1,10.22,1,36.9,36.9,0,0,1,7.77,2.64,32.07,32.07,0,0,1,5.35,3.2,22.45,22.45,0,0,1,3.06,2.71c2.23,2.13,3.45,3.94,3.68,5.42s-.62,3.43-2.57,5.83-3.82,3.73-5.62,4-3.87-.48-6.19-2.15a23,23,0,0,0-4.37-3.68,17.22,17.22,0,0,0-5-2.15,25.89,25.89,0,0,0-6.46-.7,19.06,19.06,0,0,0-5.35.76,12.78,12.78,0,0,0-4.37,2.23,10.26,10.26,0,0,0-3.89,8.26,8.43,8.43,0,0,0,2,5.77,14.66,14.66,0,0,0,5.49,3.75,72.18,72.18,0,0,0,7.78,2.71c2.87.83,5.79,1.72,8.75,2.64a83.85,83.85,0,0,1,9,3.61,32,32,0,0,1,7.91,5.22,22.78,22.78,0,0,1,5.56,7.77,27.65,27.65,0,0,1,2.09,11.33,29,29,0,0,1-2.92,13.34,25.58,25.58,0,0,1-8,9.31,36.31,36.31,0,0,1-11.12,5.35A44.55,44.55,0,0,1,302,380.18Z"/></svg>