<svg id="Layer_1" data-name="Layer 1" xmlns="http://www.w3.org/2000/svg" viewBox="0 0 512 512"><defs><style>.cls-1{fill:#e2e5e7;}.cls-2{fill:#b0b7bd;}.cls-3{fill:#cad1d8;}.cls-4{fill:#d85682;}.cls-5{fill:#fff;}</style></defs><path class="cls-1" d="M128,0A32.09,32.09,0,0,0,96,32V480a32.09,32.09,0,0,0,32,32H448a32.09,32.09,0,0,0,32-32V128L352,0Z"/><path class="cls-2" d="M384,128h96L352,0V96A32.09,32.09,0,0,0,384,128Z"/><path class="cls-3" d="M480,224l-96-96h96Z"/><path class="cls-4" d="M416,416a16,16,0,0,1-16,16H48a16,16,0,0,1-16-16V256a16,16,0,0,1,16-16H400a16,16,0,0,1,16,16Z"/><path class="cls-3" d="M400,432H96v16H400a16,16,0,0,0,16-16V416A16,16,0,0,1,400,432Z"/><path class="cls-5" d="M109.86,380.18a39.64,39.64,0,0,1-11.46-1.53,37.34,37.34,0,0,1-15.29-8.75,24.12,24.12,0,0,1-3.82-4.58,12.51,12.51,0,0,1-2.43-4.45,5.41,5.41,0,0,1,.42-3.82,12.57,12.57,0,0,1,3.4-4,7.66,7.66,0,0,1,4.66-2.29,6.78,6.78,0,0,1,4.16,1.32,17.83,17.83,0,0,1,4,3.89,19.58,19.58,0,0,0,7.51,6.32,20.15,20.15,0,0,0,8.33,1.88,27.8,27.8,0,0,0,9.45-1.46,13.37,13.37,0,0,0,6.25-4.38,12.07,12.07,0,0,0,2.23-7.5,8.84,8.84,0,0,0-2.23-6.19,18.15,18.15,0,0,0-6-4.16,75.17,75.17,0,0,0-8.41-3.2q-4.58-1.45-9.31-3.13a66.83,66.83,0,0,1-6.73-2.84,44.16,44.16,0,0,1-6.19-3.69,23.47,23.47,0,0,1-5.07-4.93,21.34,21.34,0,0,1-3.33-6.6,28.59,28.59,0,0,1-1.18-8.61,25.55,25.55,0,0,1,3.89-14,27.24,27.24,0,0,1,10.76-9.65,34.19,34.19,0,0,1,15.91-3.55,46,46,0,0,1,10.22,1A37.2,37.2,0,0,1,127.3,284a32.92,32.92,0,0,1,5.35,3.2,22.26,22.26,0,0,1,3,2.71c2.23,2.13,3.45,3.94,3.68,5.42s-.62,3.43-2.57,5.83-3.82,3.73-5.62,4-3.87-.48-6.19-2.15a22.72,22.72,0,0,0-4.37-3.68,17.27,17.27,0,0,0-5-2.15,26,26,0,0,0-6.47-.7,18.93,18.93,0,0,0-5.34.76,12.74,12.74,0,0,0-4.38,2.23,10.26,10.26,0,0,0-3.89,8.26,8.43,8.43,0,0,0,2,5.77,14.66,14.66,0,0,0,5.49,3.75,72.18,72.18,0,0,0,7.78,2.71c2.87.83,5.79,1.72,8.76,2.64a84.52,84.52,0,0,1,9,3.61,32.19,32.19,0,0,1,7.92,5.22,22.89,22.89,0,0,1,5.55,7.77,27.65,27.65,0,0,1,2.09,11.33,28.85,28.85,0,0,1-2.92,13.34,25.48,25.48,0,0,1-8,9.31,36.26,36.26,0,0,1-11.11,5.35A44.62,44.62,0,0,1,109.86,380.18Z"/><path class="cls-5" d="M168.63,378.93q-4,0-5.77-1.18a5.2,5.2,0,0,1-2.22-3.13,17.91,17.91,0,0,1-.48-4.3v-80c0-3.25.64-5.47,1.94-6.67s3.61-1.81,7-1.81h54a17.4,17.4,0,0,1,4.3.49,4.88,4.88,0,0,1,3.06,2.29q1.11,1.8,1.11,5.84c0,2.59-.39,4.47-1.18,5.62a5.26,5.26,0,0,1-3.12,2.23,18.05,18.05,0,0,1-4.31.48H177.11V322h31.54a15.54,15.54,0,0,1,4.1.48,4.58,4.58,0,0,1,2.7,2q1,1.53,1,5.28a9.7,9.7,0,0,1-1,4.93,4.18,4.18,0,0,1-2.77,2,19.29,19.29,0,0,1-4.31.42H177.11V362h46a17.4,17.4,0,0,1,4.3.49,4.88,4.88,0,0,1,3.06,2.29,11.24,11.24,0,0,1,1.11,5.7q0,3.89-1.18,5.69a5.17,5.17,0,0,1-3.12,2.3,18.05,18.05,0,0,1-4.31.48Z"/><path class="cls-5" d="M279.23,378.52a8.21,8.21,0,0,1-4.52-1,6.9,6.9,0,0,1-2.36-2.43,11.38,11.38,0,0,1-1-2.36l-27.23-79.61q-1.4-4.59-.42-6.88t5.7-3.82a13.69,13.69,0,0,1,5.14-1,4.75,4.75,0,0,1,3.26,1.6,12.21,12.21,0,0,1,2.29,4.52l20,60.58,17.79-60a17.64,17.64,0,0,1,1.18-2.7,6.6,6.6,0,0,1,2.43-2.51,8.65,8.65,0,0,1,4.58-1,9.47,9.47,0,0,1,5.15,1.11,7.46,7.46,0,0,1,2.43,2.5,12.9,12.9,0,0,1,1,2.37l17.92,60.71,20-60.85A17.39,17.39,0,0,1,355,283a4.65,4.65,0,0,1,3.34-1.8,12.82,12.82,0,0,1,5.28.9,13.37,13.37,0,0,1,4.51,2.57,4.66,4.66,0,0,1,1.39,3.27,16.46,16.46,0,0,1-.9,5.14l-27.09,79.75a14.58,14.58,0,0,1-1.05,2.22,6.72,6.72,0,0,1-2.43,2.43,8.56,8.56,0,0,1-4.58,1,7.54,7.54,0,0,1-7.16-4c-.51-1-.86-1.76-1-2.23l-18.9-61-18.89,60.85a15.53,15.53,0,0,1-1.05,2.5,7.31,7.31,0,0,1-2.43,2.72A8.12,8.12,0,0,1,279.23,378.52Z"/></svg>