<svg id="Layer_1" data-name="Layer 1" xmlns="http://www.w3.org/2000/svg" viewBox="0 0 512 512"><defs><style>.cls-1{fill:#e2e5e7;}.cls-2{fill:#b0b7bd;}.cls-3{fill:#cad1d8;}.cls-4{fill:#537fe0;}.cls-5{fill:#fff;}</style></defs><path class="cls-1" d="M128,0A32.09,32.09,0,0,0,96,32V480a32.09,32.09,0,0,0,32,32H448a32.09,32.09,0,0,0,32-32V128L352,0Z"/><path class="cls-2" d="M384,128h96L352,0V96A32.09,32.09,0,0,0,384,128Z"/><path class="cls-3" d="M480,224l-96-96h96Z"/><path class="cls-4" d="M416,416a16,16,0,0,1-16,16H48a16,16,0,0,1-16-16V256a16,16,0,0,1,16-16H400a16,16,0,0,1,16,16Z"/><path class="cls-3" d="M400,432H96v16H400a16,16,0,0,0,16-16V416A16,16,0,0,1,400,432Z"/><path class="cls-5" d="M138.13,378.79a12.56,12.56,0,0,1-5.49-1,6.24,6.24,0,0,1-3.12-3.54L95.06,292.93c-1.2-2.78-1.46-4.89-.76-6.32s2.43-2.81,5.21-4.1a10.45,10.45,0,0,1,4.86-1.74,4.67,4.67,0,0,1,3.54,1.32,11.66,11.66,0,0,1,2.57,4.17L138,355.17l27.24-68.08a14.13,14.13,0,0,1,2.57-4.51,4.91,4.91,0,0,1,3.61-1.67,11.24,11.24,0,0,1,5.35,1.6c3.24,1.57,5,3.22,5.28,4.93s-.19,3.82-1.39,6.32l-34.18,80.45a7.39,7.39,0,0,1-3.2,3.33A10.22,10.22,0,0,1,138.13,378.79Z"/><path class="cls-5" d="M207.61,378.79q-4,0-5.77-1.11a4.93,4.93,0,0,1-2.22-3.12,17.78,17.78,0,0,1-.49-4.24v-80a14.8,14.8,0,0,1,.56-4.17,5.38,5.38,0,0,1,2.36-3.13c1.2-.78,3.1-1.18,5.69-1.18h29.32a35.1,35.1,0,0,1,12,2.09,31.75,31.75,0,0,1,10.49,6.32A29.88,29.88,0,0,1,267,300.57a38.4,38.4,0,0,1,0,28.34,28.53,28.53,0,0,1-7.43,10.21A32.74,32.74,0,0,1,249,345.31a35.66,35.66,0,0,1-12.09,2.08H216.08v23.07a16.77,16.77,0,0,1-.49,4.16,4.91,4.91,0,0,1-2.22,3.06Q211.63,378.79,207.61,378.79Zm8.47-48.35h21a18.15,18.15,0,0,0,7.92-1.73,13.53,13.53,0,0,0,5.77-5.28,16.82,16.82,0,0,0,2.15-8.83,17.26,17.26,0,0,0-1.94-8.4,13.55,13.55,0,0,0-5.56-5.49,17.61,17.61,0,0,0-8.48-1.95H216.08Z"/><path class="cls-5" d="M317.37,379.91a39.86,39.86,0,0,1-13.69-2.3,36.27,36.27,0,0,1-11.11-6.32,31.31,31.31,0,0,1-7.57-9.17,24.67,24.67,0,0,1-3.06-10.7q0-6.1,9.17-6.11a11.87,11.87,0,0,1,4.17.56A4.37,4.37,0,0,1,297.5,348a24.18,24.18,0,0,1,1.67,4.17,16.6,16.6,0,0,0,3.26,5.42,17.64,17.64,0,0,0,6.05,4.37,21.33,21.33,0,0,0,9,1.74,23.48,23.48,0,0,0,9.72-1.88,15.66,15.66,0,0,0,6.54-5.21,12.91,12.91,0,0,0,2.36-7.64,12.29,12.29,0,0,0-2.3-7.36,14.37,14.37,0,0,0-6.18-4.87,22.41,22.41,0,0,0-8.89-1.66,23.93,23.93,0,0,1-4.72-.42,4.74,4.74,0,0,1-3.2-2.15q-1.11-1.74-1.11-5.63c0-2.69.37-4.56,1.11-5.63a4.88,4.88,0,0,1,3.2-2,24.71,24.71,0,0,1,4.86-.42,21.47,21.47,0,0,0,7.78-1.25,10.28,10.28,0,0,0,4.79-3.47,8.34,8.34,0,0,0,1.6-5,12,12,0,0,0-1.81-6.59,11.69,11.69,0,0,0-5.07-4.38,17.64,17.64,0,0,0-7.57-1.53,20.84,20.84,0,0,0-6.95,1,15.12,15.12,0,0,0-5.07,3,25.41,25.41,0,0,0-4,4.58q-2.08,4-4.79,4.73c-1.81.46-4.15-.09-7-1.67-2.31-1.48-3.71-3-4.17-4.59a8.22,8.22,0,0,1,.84-5.69c.37-.56.95-1.51,1.73-2.85a29.8,29.8,0,0,1,9-9.31,31.9,31.9,0,0,1,8.19-3.82,37.42,37.42,0,0,1,11.33-1.53,36.42,36.42,0,0,1,13.68,2.43,32.13,32.13,0,0,1,10.22,6.39,27.2,27.2,0,0,1,6.32,9,25.83,25.83,0,0,1,2.15,10.28,19.18,19.18,0,0,1-1.81,8.47,21.14,21.14,0,0,1-9.72,10,18.53,18.53,0,0,1,5.49,3.33,26.49,26.49,0,0,1,4.58,5.21,26.1,26.1,0,0,1,3.13,6.33,21.38,21.38,0,0,1,1.11,6.8,29.1,29.1,0,0,1-4.52,16,31.38,31.38,0,0,1-12.57,11.19A40.22,40.22,0,0,1,317.37,379.91Z"/></svg>