<svg id="Layer_1" data-name="Layer 1" xmlns="http://www.w3.org/2000/svg" viewBox="0 0 512 512"><defs><style>.cls-1{fill:#e2e5e7;}.cls-2{fill:#b0b7bd;}.cls-3{fill:#cad1d8;}.cls-4{fill:#e06a53;}.cls-5{fill:#fff;}</style></defs><path class="cls-1" d="M128,0A32.09,32.09,0,0,0,96,32V480a32.09,32.09,0,0,0,32,32H448a32.09,32.09,0,0,0,32-32V128L352,0Z"/><path class="cls-2" d="M384,128h96L352,0V96A32.09,32.09,0,0,0,384,128Z"/><path class="cls-3" d="M480,224l-96-96h96Z"/><path class="cls-4" d="M416,416a16,16,0,0,1-16,16H48a16,16,0,0,1-16-16V256a16,16,0,0,1,16-16H400a16,16,0,0,1,16,16Z"/><path class="cls-3" d="M400,432H96v16H400a16,16,0,0,0,16-16V416A16,16,0,0,1,400,432Z"/><path class="cls-5" d="M161.2,377.27a16.05,16.05,0,0,1-4.38,2.77,4.13,4.13,0,0,1-3.61-.27,15.54,15.54,0,0,1-3.82-3.34L83.81,295.71q-3.06-3.48-3-6.12c.05-1.76,1.27-3.7,3.68-5.83a13.51,13.51,0,0,1,4.38-2.85,4.6,4.6,0,0,1,3.68.28,11.75,11.75,0,0,1,3.75,3.4l65.58,81q3.2,3.48,3.2,6.05T161.2,377.27Zm-76.7,0c-2.41-2-3.63-3.92-3.68-5.63s1-3.73,3-6.05l65.58-81a13.39,13.39,0,0,1,3.82-3.4,4.57,4.57,0,0,1,3.68-.28,13.19,13.19,0,0,1,4.45,2.85q3.75,3.19,3.75,5.83T162,295.71L96.45,376.43a15.54,15.54,0,0,1-3.82,3.34A4.27,4.27,0,0,1,89,380,15.55,15.55,0,0,1,84.5,377.27Z"/><path class="cls-5" d="M260.68,377.27A16.05,16.05,0,0,1,256.3,380a4.13,4.13,0,0,1-3.61-.27,15.54,15.54,0,0,1-3.82-3.34l-65.58-80.72q-3.06-3.48-3-6.12c0-1.76,1.27-3.7,3.68-5.83a13.51,13.51,0,0,1,4.38-2.85,4.6,4.6,0,0,1,3.68.28,11.55,11.55,0,0,1,3.75,3.4l65.59,81q3.19,3.48,3.19,6.05T260.68,377.27Zm-76.7,0c-2.41-2-3.63-3.92-3.68-5.63s.95-3.73,3-6.05l65.58-81a13.39,13.39,0,0,1,3.82-3.4,4.57,4.57,0,0,1,3.68-.28,13.19,13.19,0,0,1,4.45,2.85q3.75,3.19,3.75,5.83t-3.05,6.12l-65.59,80.72a15.54,15.54,0,0,1-3.82,3.34,4.27,4.27,0,0,1-3.68.27A15.55,15.55,0,0,1,184,377.27Z"/><path class="cls-5" d="M360.16,377.27a15.88,15.88,0,0,1-4.37,2.77,4.13,4.13,0,0,1-3.61-.27,15.55,15.55,0,0,1-3.83-3.34l-65.58-80.72q-3.06-3.48-3-6.12t3.68-5.83a13.39,13.39,0,0,1,4.37-2.85,4.62,4.62,0,0,1,3.69.28,11.75,11.75,0,0,1,3.75,3.4l65.58,81q3.19,3.48,3.19,6.05C364.05,373.35,362.76,375.23,360.16,377.27Zm-76.69,0q-3.62-3.06-3.68-5.63t3-6.05l65.58-81a13.4,13.4,0,0,1,3.83-3.4,4.57,4.57,0,0,1,3.68-.28,13.17,13.17,0,0,1,4.44,2.85q3.75,3.19,3.75,5.83c0,1.76-1,3.8-3.05,6.12l-65.58,80.72a15.72,15.72,0,0,1-3.82,3.34,4.29,4.29,0,0,1-3.69.27A15.52,15.52,0,0,1,283.47,377.27Z"/></svg>